<?xml version="1.0" encoding="utf-8"?>
<!-- Generator: Adobe Illustrator 18.0.0, SVG Export Plug-In . SVG Version: 6.00 Build 0)  -->
<!DOCTYPE svg PUBLIC "-//W3C//DTD SVG 1.1//EN" "http://www.w3.org/Graphics/SVG/1.1/DTD/svg11.dtd">
<svg version="1.1" id="Layer_1" xmlns="http://www.w3.org/2000/svg" xmlns:xlink="http://www.w3.org/1999/xlink" x="0px" y="0px"
	 viewBox="0 0 144 72" enable-background="new 0 0 144 72" xml:space="preserve">
<g>
	<g id="XMLID_331_">
		<rect id="XMLID_335_" x="83.7" y="22.2" fill="#5471F9" width="12.7" height="25.4"/>
		<path id="XMLID_333_" fill="#5471F9" d="M119.9,21.8c-7.3,0-13.1,5.9-13.1,13.1S112.7,48,119.9,48c7.3,0,13.1-5.9,13.1-13.1
			S127.2,21.8,119.9,21.8z"/>
		
			<rect id="XMLID_332_" x="101.7" y="17.2" transform="matrix(0.9754 0.2206 -0.2206 0.9754 10.3176 -21.7844)" fill="#31E7B6" width="1.9" height="36.1"/>
	</g>
	<g>
		<path fill="#BCBCBC" d="M21.5,48h-3.3V25.3H11v-3.2h17.8v3.2h-7.3V48z"/>
		<path fill="#BCBCBC" d="M32.3,48v-26h8.8c2.2,0,4.1,0.7,5.7,2.2c1.6,1.5,2.4,3.3,2.4,5.5c0,1.8-0.6,3.4-1.8,4.8
			c-1.2,1.4-2.7,2.3-4.4,2.6L43,37.3l7.3,10.6V48h-4l-7-10.5h-3.7V48H32.3z M35.6,34.4H41c1.3,0,2.5-0.4,3.4-1.3
			c1-0.9,1.4-2,1.4-3.3c0-1.1-0.4-2.2-1.3-3.1c-0.8-0.9-2-1.4-3.4-1.4h-5.6V34.4z"/>
		<path fill="#BCBCBC" d="M53.2,48v-26h3.3v26H53.2z"/>
		<path fill="#BCBCBC" d="M68.2,48l-9.1-26h3.7l7.1,21.1H70l7.4-21.1h3.7l-9.4,26H68.2z"/>
	</g>
</g>
</svg>
